<svg width="100" height="120" viewBox="0 0 100 120" xmlns="http://www.w3.org/2000/svg">
  <!-- School Shield Background -->
  <path d="M50 5 L85 20 L85 70 C85 85 70 110 50 115 C30 110 15 85 15 70 L15 20 Z" fill="#1E40AF" stroke="#000" stroke-width="2"/>
  
  <!-- Inner Shield -->
  <path d="M50 15 L75 25 L75 65 C75 75 65 95 50 100 C35 95 25 75 25 65 L25 25 Z" fill="#3B82F6"/>
  
  <!-- Flame/Torch Symbol -->
  <g transform="translate(50,45)">
    <!-- Torch base -->
    <ellipse cx="0" cy="15" rx="8" ry="3" fill="#FCD34D"/>
    <!-- Flame -->
    <path d="M0 15 Q-8 10 -6 0 Q-2 -8 0 -12 Q2 -8 6 0 Q8 10 0 15" fill="#FCD34D"/>
    <path d="M0 12 Q-5 8 -4 2 Q-1 -4 0 -8 Q1 -4 4 2 Q5 8 0 12" fill="#FBBF24"/>
    <path d="M0 8 Q-3 6 -2 2 Q0 -2 0 -4 Q0 -2 2 2 Q3 6 0 8" fill="#F59E0B"/>
  </g>
  
  <!-- School Name Banner -->
  <rect x="10" y="85" width="80" height="15" fill="#FCD34D" stroke="#000" stroke-width="1"/>
  <text x="50" y="95" text-anchor="middle" font-family="Arial, sans-serif" font-size="8" font-weight="bold" fill="#000">PULLINQUE</text>
  
  <!-- Bottom Banner -->
  <rect x="15" y="102" width="70" height="10" fill="#1E40AF"/>
  <text x="50" y="109" text-anchor="middle" font-family="Arial, sans-serif" font-size="6" fill="#FCD34D">LICEO DE EXCELENCIA</text>
</svg>
